<svg width="148" height="38" viewBox="0 0 148 38" fill="none" xmlns="http://www.w3.org/2000/svg">
<mask id="mask0_406_2247" style="mask-type:alpha" maskUnits="userSpaceOnUse" x="0" y="0" width="148" height="38">
<path d="M0 0H148V38H0V0Z" fill="#D9D9D9"/>
</mask>
<g mask="url(#mask0_406_2247)">
<path d="M136.886 37C136.162 37 135.538 36.9053 135.016 36.7158C134.497 36.5263 134.074 36.2756 133.745 35.9637C133.417 35.6519 133.172 35.3104 133.009 34.9393L134.535 34.3116C134.642 34.4853 134.784 34.6689 134.962 34.8623C135.145 35.0597 135.39 35.2275 135.699 35.3657C136.011 35.5038 136.413 35.5729 136.904 35.5729C137.577 35.5729 138.133 35.4091 138.572 35.0814C139.011 34.7577 139.231 34.2406 139.231 33.53V31.7417H139.118C139.011 31.9351 138.857 32.1502 138.655 32.3871C138.457 32.624 138.184 32.8293 137.836 33.0029C137.487 33.1766 137.034 33.2635 136.476 33.2635C135.756 33.2635 135.107 33.0957 134.529 32.7602C133.955 32.4207 133.5 31.9213 133.164 31.262C132.831 30.5988 132.665 29.7836 132.665 28.8164C132.665 27.8492 132.829 27.0202 133.158 26.3294C133.49 25.6385 133.945 25.1095 134.523 24.7424C135.101 24.3713 135.756 24.1858 136.488 24.1858C137.054 24.1858 137.511 24.2805 137.859 24.47C138.208 24.6555 138.479 24.8727 138.673 25.1214C138.871 25.3701 139.023 25.5892 139.13 25.7787H139.261V24.3042H141V33.601C141 34.3827 140.818 35.0242 140.454 35.5255C140.09 36.0269 139.597 36.398 138.976 36.6388C138.358 36.8796 137.662 37 136.886 37ZM136.868 31.795C137.379 31.795 137.81 31.6765 138.162 31.4397C138.518 31.1988 138.788 30.8554 138.97 30.4093C139.156 29.9593 139.249 29.4204 139.249 28.7927C139.249 28.1808 139.158 27.642 138.976 27.1761C138.793 26.7103 138.526 26.3471 138.174 26.0866C137.822 25.8221 137.387 25.6898 136.868 25.6898C136.334 25.6898 135.889 25.828 135.532 26.1043C135.176 26.3767 134.907 26.7478 134.725 27.2176C134.547 27.6874 134.458 28.2124 134.458 28.7927C134.458 29.3888 134.549 29.9119 134.731 30.3619C134.913 30.812 135.182 31.1633 135.538 31.416C135.898 31.6686 136.342 31.795 136.868 31.795Z" fill="#050505"/>
<path d="M125.348 27.9992V33.3997H123.573V24.3042H125.277V25.7846H125.39C125.6 25.303 125.928 24.9161 126.375 24.6239C126.826 24.3318 127.394 24.1858 128.079 24.1858C128.7 24.1858 129.245 24.316 129.712 24.5766C130.179 24.8332 130.541 25.2161 130.798 25.7254C131.055 26.2346 131.184 26.8643 131.184 27.6143V33.3997H129.409V27.8275C129.409 27.1682 129.237 26.6531 128.892 26.282C128.548 25.907 128.075 25.7194 127.474 25.7194C127.062 25.7194 126.696 25.8083 126.375 25.9859C126.059 26.1636 125.807 26.4241 125.621 26.7676C125.439 27.1071 125.348 27.5176 125.348 27.9992Z" fill="#050505"/>
<path d="M119.912 33.3997V24.3042H121.687V33.3997H119.912ZM120.808 22.9008C120.5 22.9008 120.234 22.7981 120.013 22.5928C119.795 22.3836 119.686 22.1349 119.686 21.8467C119.686 21.5546 119.795 21.3059 120.013 21.1006C120.234 20.8914 120.5 20.7868 120.808 20.7868C121.117 20.7868 121.38 20.8914 121.598 21.1006C121.819 21.3059 121.93 21.5546 121.93 21.8467C121.93 22.1349 121.819 22.3836 121.598 22.5928C121.38 22.7981 121.117 22.9008 120.808 22.9008Z" fill="#050505"/>
<path d="M118.45 24.3042V25.7253H113.469V24.3042H118.45ZM114.805 22.125H116.58V30.7291C116.58 31.0725 116.631 31.3311 116.734 31.5048C116.837 31.6745 116.97 31.791 117.132 31.8542C117.298 31.9134 117.478 31.943 117.672 31.943C117.815 31.943 117.939 31.9331 118.046 31.9134C118.153 31.8936 118.236 31.8778 118.296 31.866L118.616 33.3286C118.513 33.3681 118.367 33.4076 118.177 33.4471C117.987 33.4905 117.749 33.5142 117.465 33.5181C116.998 33.526 116.562 33.4431 116.158 33.2694C115.755 33.0957 115.428 32.8273 115.179 32.4641C114.93 32.1009 114.805 31.6449 114.805 31.0962V22.125Z" fill="#050505"/>
<path d="M112.307 21.2723V33.3997H110.532V21.2723H112.307Z" fill="#050505"/>
<path d="M106.868 29.6277V24.3042H108.648V33.3997H106.903V31.8246H106.808C106.598 32.3101 106.262 32.7148 105.799 33.0385C105.34 33.3582 104.768 33.5181 104.083 33.5181C103.498 33.5181 102.979 33.3898 102.528 33.1332C102.081 32.8727 101.728 32.4878 101.471 31.9785C101.218 31.4693 101.091 30.8396 101.091 30.0895V24.3042H102.866V29.8764C102.866 30.4962 103.038 30.9896 103.383 31.3568C103.727 31.7239 104.174 31.9075 104.724 31.9075C105.057 31.9075 105.387 31.8246 105.716 31.6588C106.048 31.493 106.323 31.2423 106.541 30.9067C106.763 30.5712 106.871 30.1448 106.868 29.6277Z" fill="#050505"/>
<path d="M99.4629 26.5248L97.8541 26.809C97.7869 26.6037 97.68 26.4083 97.5336 26.2228C97.3911 26.0372 97.1972 25.8852 96.9518 25.7668C96.7064 25.6484 96.3997 25.5892 96.0316 25.5892C95.529 25.5892 95.1095 25.7017 94.7731 25.9267C94.4367 26.1478 94.2685 26.434 94.2685 26.7853C94.2685 27.0893 94.3813 27.334 94.6069 27.5196C94.8324 27.7051 95.1966 27.8571 95.6992 27.9755L97.1477 28.3072C97.9867 28.5006 98.612 28.7986 99.0236 29.2013C99.4352 29.604 99.641 30.127 99.641 30.7705C99.641 31.3153 99.4827 31.8009 99.1661 32.2272C98.8534 32.6496 98.4161 32.9812 97.8541 33.222C97.2961 33.4629 96.649 33.5833 95.9129 33.5833C94.8918 33.5833 94.0587 33.3661 93.4136 32.9319C92.7685 32.4937 92.3728 31.8719 92.2263 31.0666L93.942 30.8061C94.0488 31.2521 94.2685 31.5897 94.6009 31.8186C94.9334 32.0437 95.3667 32.1562 95.901 32.1562C96.4828 32.1562 96.9478 32.0358 97.2961 31.795C97.6444 31.5502 97.8185 31.2521 97.8185 30.9008C97.8185 30.6166 97.7117 30.3777 97.4979 30.1843C97.2882 29.9909 96.9656 29.8448 96.5303 29.7461L94.9868 29.4086C94.1359 29.2151 93.5066 28.9072 93.099 28.4848C92.6953 28.0624 92.4935 27.5275 92.4935 26.8801C92.4935 26.3432 92.6439 25.8734 92.9446 25.4707C93.2454 25.0681 93.661 24.7542 94.1913 24.5292C94.7216 24.3002 95.3291 24.1858 96.0138 24.1858C96.9993 24.1858 97.775 24.3989 98.3409 24.8253C98.9069 25.2477 99.2809 25.8142 99.4629 26.5248Z" fill="#050505"/>
<path d="M84.9154 27.9992V33.3997H83.1404V24.3042H84.8442V25.7846H84.957C85.1667 25.303 85.4952 24.9161 85.9424 24.6239C86.3936 24.3318 86.9615 24.1858 87.6462 24.1858C88.2675 24.1858 88.8117 24.316 89.2787 24.5766C89.7457 24.8332 90.1079 25.2161 90.3651 25.7254C90.6224 26.2346 90.751 26.8643 90.751 27.6143V33.3997H88.976V27.8275C88.976 27.1682 88.8038 26.6531 88.4595 26.282C88.1152 25.907 87.6422 25.7194 87.0407 25.7194C86.6291 25.7194 86.263 25.8083 85.9424 25.9859C85.6258 26.1636 85.3745 26.4241 85.1885 26.7676C85.0064 27.1071 84.9154 27.5176 84.9154 27.9992Z" fill="#050505"/>
<path d="M77.4102 33.5833C76.5554 33.5833 75.8093 33.3879 75.1721 32.997C74.535 32.6062 74.0403 32.0594 73.688 31.3568C73.3358 30.6541 73.1597 29.8329 73.1597 28.8934C73.1597 27.9499 73.3358 27.1248 73.688 26.4182C74.0403 25.7115 74.535 25.1628 75.1721 24.772C75.8093 24.3812 76.5554 24.1858 77.4102 24.1858C78.2651 24.1858 79.0111 24.3812 79.6483 24.772C80.2855 25.1628 80.7802 25.7115 81.1324 26.4182C81.4846 27.1248 81.6608 27.9499 81.6608 28.8934C81.6608 29.8329 81.4846 30.6541 81.1324 31.3568C80.7802 32.0594 80.2855 32.6062 79.6483 32.997C79.0111 33.3879 78.2651 33.5833 77.4102 33.5833ZM77.4161 32.097C77.9702 32.097 78.4293 31.9509 78.7934 31.6588C79.1575 31.3666 79.4266 30.9778 79.6008 30.4922C79.7789 30.0066 79.8679 29.4717 79.8679 28.8875C79.8679 28.3072 79.7789 27.7742 79.6008 27.2886C79.4266 26.7991 79.1575 26.4063 78.7934 26.1103C78.4293 25.8142 77.9702 25.6661 77.4161 25.6661C76.8581 25.6661 76.3951 25.8142 76.027 26.1103C75.6629 26.4063 75.3918 26.7991 75.2137 27.2886C75.0396 27.7742 74.9525 28.3072 74.9525 28.8875C74.9525 29.4717 75.0396 30.0066 75.2137 30.4922C75.3918 30.9778 75.6629 31.3666 76.027 31.6588C76.3951 31.9509 76.8581 32.097 77.4161 32.097Z" fill="#050505"/>
<path d="M72.0181 25.2161H70.1659C70.0947 24.8213 69.9621 24.4739 69.7682 24.1739C69.5743 23.8739 69.3368 23.6193 69.0558 23.41C68.7748 23.2008 68.4602 23.0429 68.1119 22.9363C67.7676 22.8297 67.4015 22.7764 67.0137 22.7764C66.3131 22.7764 65.6859 22.9521 65.1318 23.3034C64.5817 23.6548 64.1463 24.17 63.8258 24.849C63.5091 25.528 63.3508 26.357 63.3508 27.336C63.3508 28.323 63.5091 29.1559 63.8258 29.8349C64.1463 30.5139 64.5836 31.0271 65.1377 31.3745C65.6918 31.7219 66.3151 31.8956 67.0077 31.8956C67.3916 31.8956 67.7557 31.8443 68.1 31.7417C68.4483 31.6351 68.763 31.4791 69.0439 31.2739C69.3249 31.0686 69.5624 30.8179 69.7563 30.5218C69.9542 30.2218 70.0908 29.8783 70.1659 29.4915L72.0181 29.4974C71.9192 30.0935 71.7273 30.6422 71.4423 31.1436C71.1613 31.641 70.7992 32.0713 70.3559 32.4345C69.9166 32.7937 69.414 33.072 68.848 33.2694C68.2821 33.4668 67.6647 33.5655 66.9958 33.5655C65.9431 33.5655 65.0051 33.3168 64.1819 32.8194C63.3587 32.318 62.7097 31.6015 62.2348 30.6699C61.7638 29.7382 61.5283 28.6269 61.5283 27.336C61.5283 26.0412 61.7658 24.9299 62.2407 24.0022C62.7156 23.0705 63.3647 22.356 64.1879 21.8586C65.0111 21.3572 65.9471 21.1066 66.9958 21.1066C67.6409 21.1066 68.2425 21.1993 68.8005 21.3849C69.3625 21.5665 69.8671 21.8349 70.3144 22.1902C70.7616 22.5415 71.1316 22.9718 71.4245 23.4811C71.7174 23.9864 71.9152 24.5647 72.0181 25.2161Z" fill="#050505"/>
<path d="M115.508 8.73799L113.9 9.02223C113.832 8.81695 113.725 8.62154 113.579 8.43599C113.436 8.25045 113.243 8.09847 112.997 7.98003C112.752 7.8616 112.445 7.80239 112.077 7.80239C111.574 7.80239 111.155 7.9149 110.818 8.13992C110.482 8.36099 110.314 8.6472 110.314 8.99854C110.314 9.30252 110.427 9.54727 110.652 9.73281C110.878 9.91836 111.242 10.0703 111.745 10.1888L113.193 10.5204C114.032 10.7138 114.657 11.0119 115.069 11.4145C115.481 11.8172 115.686 12.3403 115.686 12.9837C115.686 13.5285 115.528 14.0141 115.212 14.4405C114.899 14.8629 114.462 15.1945 113.9 15.4353C113.342 15.6761 112.694 15.7965 111.958 15.7965C110.937 15.7965 110.104 15.5794 109.459 15.1451C108.814 14.7069 108.418 14.0852 108.272 13.2798L109.987 13.0193C110.094 13.4654 110.314 13.8029 110.646 14.0319C110.979 14.2569 111.412 14.3694 111.946 14.3694C112.528 14.3694 112.993 14.249 113.342 14.0082C113.69 13.7634 113.864 13.4654 113.864 13.114C113.864 12.8298 113.757 12.591 113.543 12.3975C113.334 12.2041 113.011 12.058 112.576 11.9593L111.032 11.6218C110.181 11.4284 109.552 11.1204 109.144 10.698C108.741 10.2756 108.539 9.74071 108.539 9.09329C108.539 8.5564 108.689 8.08662 108.99 7.68396C109.291 7.28129 109.706 6.96745 110.237 6.74243C110.767 6.51346 111.375 6.39898 112.059 6.39898C113.045 6.39898 113.82 6.61216 114.386 7.03851C114.952 7.46091 115.326 8.02741 115.508 8.73799Z" fill="#050505"/>
<path d="M105.014 15.6129V6.5174H106.789V15.6129H105.014ZM105.91 5.11399C105.602 5.11399 105.336 5.01135 105.115 4.80607C104.897 4.59685 104.788 4.34814 104.788 4.05996C104.788 3.76783 104.897 3.51912 105.115 3.31384C105.336 3.10461 105.602 3 105.91 3C106.219 3 106.482 3.10461 106.7 3.31384C106.922 3.51912 107.032 3.76783 107.032 4.05996C107.032 4.34814 106.922 4.59685 106.7 4.80607C106.482 5.01135 106.219 5.11399 105.91 5.11399Z" fill="#050505"/>
<path d="M103.552 6.51739V7.93857H98.571V6.51739H103.552ZM99.9068 4.33826H101.682V12.9423C101.682 13.2857 101.733 13.5443 101.836 13.718C101.939 13.8878 102.072 14.0042 102.234 14.0674C102.4 14.1266 102.58 14.1562 102.774 14.1562C102.917 14.1562 103.041 14.1463 103.148 14.1266C103.255 14.1069 103.338 14.0911 103.397 14.0792L103.718 15.5418C103.615 15.5813 103.469 15.6208 103.279 15.6603C103.089 15.7037 102.851 15.7274 102.566 15.7313C102.099 15.7392 101.664 15.6563 101.26 15.4826C100.857 15.3089 100.53 15.0405 100.281 14.6773C100.031 14.3141 99.9068 13.8582 99.9068 13.3094V4.33826Z" fill="#050505"/>
<path d="M91.5809 10.2125V15.6129H89.8059V6.51741H91.5097V7.9978H91.6225C91.8322 7.51618 92.1607 7.1293 92.6079 6.83717C93.0591 6.54504 93.627 6.39898 94.3117 6.39898C94.9331 6.39898 95.4773 6.52925 95.9443 6.7898C96.4113 7.0464 96.7734 7.42933 97.0306 7.93858C97.2879 8.44784 97.4165 9.0775 97.4165 9.82756V15.6129H95.6415V10.0407C95.6415 9.38147 95.4693 8.86629 95.125 8.49521C94.7807 8.12018 94.3078 7.93266 93.7062 7.93266C93.2946 7.93266 92.9285 8.02149 92.6079 8.19913C92.2913 8.37678 92.04 8.63733 91.854 8.98078C91.672 9.32028 91.5809 9.73084 91.5809 10.2125Z" fill="#050505"/>
<path d="M84.4258 15.7965C83.5274 15.7965 82.7537 15.605 82.1046 15.2221C81.4595 14.8352 80.9608 14.2924 80.6086 13.5937C80.2603 12.891 80.0862 12.0679 80.0862 11.1244C80.0862 10.1927 80.2603 9.3716 80.6086 8.66101C80.9608 7.95043 81.4516 7.39577 82.0808 6.99706C82.7141 6.59834 83.4542 6.39898 84.3011 6.39898C84.8156 6.39898 85.3143 6.48385 85.7971 6.65361C86.2799 6.82336 86.7133 7.08983 87.0972 7.45302C87.4811 7.8162 87.7839 8.28795 88.0055 8.86827C88.2271 9.44463 88.3379 10.1453 88.3379 10.9704V11.5981H81.0895V10.2717H86.5985C86.5985 9.80585 86.5036 9.39331 86.3136 9.03407C86.1236 8.67088 85.8565 8.38467 85.5122 8.17545C85.1718 7.96622 84.7721 7.8616 84.313 7.8616C83.8143 7.8616 83.379 7.98398 83.0069 8.22874C82.6389 8.46955 82.3539 8.78537 82.1521 9.17619C81.9542 9.56306 81.8553 9.98349 81.8553 10.4375V11.4738C81.8553 12.0817 81.9621 12.5988 82.1758 13.0252C82.3935 13.4516 82.6963 13.7772 83.0841 14.0023C83.472 14.2233 83.9251 14.3339 84.4436 14.3339C84.78 14.3339 85.0867 14.2865 85.3637 14.1917C85.6408 14.0931 85.8802 13.947 86.0821 13.7536C86.2839 13.5601 86.4382 13.3213 86.5451 13.037L88.2251 13.339C88.0906 13.8325 87.8492 14.2648 87.5009 14.6359C87.1566 15.003 86.7232 15.2892 86.2008 15.4945C85.6823 15.6958 85.0907 15.7965 84.4258 15.7965Z" fill="#050505"/>
<path d="M79.6393 6.5174L76.3326 15.6129H74.4329L71.1204 6.5174H73.026L75.3353 13.5167H75.4303L77.7336 6.5174H79.6393Z" fill="#050505"/>
<path d="M62.9472 15.6129H61L65.3752 3.48558H67.4945L71.8698 15.6129H69.9226L66.4853 5.6884H66.3904L62.9472 15.6129ZM63.2737 10.8638H69.5901V12.4034H63.2737V10.8638Z" fill="#050505"/>
<path d="M134 3H127L121 16H128L134 3Z" fill="#193133"/>
<path d="M42.4118 8.09468C44.9773 8.09468 47.9224 9.14684 49.8981 11.0407L53.3482 7.50399C50.3183 4.51733 46.3632 3 42.4118 3C33.5138 3 28.4455 8.6263 27.1739 15.4524L27.1702 15.4857C29.4149 14.8064 31.4644 14.3412 33.2484 14.0163C34.756 10.487 37.9628 8.09468 42.4118 8.09468Z" fill="#193133"/>
<path d="M42.2568 16.2646H41.8256H41.527V16.5415V16.9734V21.2375H49.0538V26.4614C46.739 28.3183 44.7191 28.7207 42.408 28.8204C34.483 29.1674 31.0145 21.1673 29.4553 19.1516C29.9013 21.075 35.4267 32.778 35.4267 32.778C37.3802 33.557 39.6914 34 42.408 34C47.5794 34 51.2396 32.0212 54.1405 28.6949V16.2646H42.2568Z" fill="#193133"/>
<path d="M27.8853 20.5766L27.83 20.4548C26.0829 21.219 24.3947 22.105 22.7544 23.1129L27.5278 33.9742C29.6435 33.9742 31.763 33.9742 33.8861 33.9742L31.4497 28.5361L27.8853 20.5766Z" fill="#193133"/>
<path d="M9.56573 26.0848L16.8456 9.52341L20.4653 17.985C22.2825 17.1802 24.0407 16.5046 25.7068 15.9545L21.2835 5.84269L20.0229 3.02216H13.6646L0.859375 33.9299L8.02129 33.9742C18.2315 21.1673 29.4075 16.4824 40.296 15.2014C40.3218 15.1977 24.8737 14.8544 9.56573 26.0848Z" fill="#193133"/>
</g>
</svg>
