<svg width="8" height="8" viewBox="0 0 8 8" fill="none" xmlns="http://www.w3.org/2000/svg">
<path d="M6.75646 0.255056C6.8947 0.089653 7.07867 -0.00178848 7.26954 2.65108e-05C7.46041 0.0018415 7.64325 0.0967713 7.77949 0.264784C7.91573 0.432797 7.9947 0.660752 7.99974 0.900549C8.00479 1.14034 7.93551 1.37323 7.80653 1.55005L3.89085 7.70437C3.82352 7.79551 3.74226 7.86865 3.65192 7.91942C3.56158 7.97018 3.46403 7.99754 3.36509 7.99984C3.26614 8.00214 3.16785 7.97935 3.07608 7.93282C2.98431 7.88629 2.90094 7.81698 2.83097 7.72903L0.234262 4.46564C0.161948 4.38096 0.103946 4.27884 0.063718 4.16537C0.0234896 4.05191 0.00185823 3.92942 0.000114546 3.80522C-0.00162914 3.68102 0.0165507 3.55765 0.053569 3.44248C0.0905874 3.3273 0.145686 3.22267 0.215578 3.13483C0.28547 3.047 0.368724 2.97775 0.460372 2.93123C0.552021 2.88471 0.650187 2.86186 0.749014 2.86405C0.847841 2.86624 0.945304 2.89343 1.03559 2.94398C1.12588 2.99454 1.20713 3.06743 1.27452 3.15831L3.32951 5.73967L6.73782 0.28219C6.74395 0.272694 6.74952 0.263635 6.75646 0.255056Z" fill="white"/>
</svg>
