<svg width="40" height="40" viewBox="0 0 40 40" fill="none" xmlns="http://www.w3.org/2000/svg">
<g clip-path="url(#clip0_176_19)">
<path d="M9.375 20C9.375 18.0183 9.92102 16.1618 10.8696 14.5722V7.82935H4.1268C1.45063 11.305 0 15.5408 0 20C0 24.4593 1.45063 28.6951 4.1268 32.1708H10.8696V25.4279C9.92102 23.8383 9.375 21.9818 9.375 20Z" fill="#FBBD00"/>
<path d="M20 30.625L15.3125 35.3125L20 40C24.4593 40 28.6951 38.5494 32.1707 35.8732V29.1376H25.4351C23.8316 30.0896 21.9673 30.625 20 30.625Z" fill="#0F9D58"/>
<path d="M10.8696 25.4279L4.12677 32.1707C4.66073 32.8644 5.23896 33.523 5.85786 34.1422C9.63536 37.9196 14.6578 40 20 40V30.625C16.1231 30.625 12.7252 28.5375 10.8696 25.4279Z" fill="#31AA52"/>
<path d="M40 20C40.0002 18.7848 39.8906 17.5722 39.6725 16.3768L39.4966 15.4159H20V24.7909H29.4884C28.5805 26.5974 27.1738 28.1059 25.435 29.1376L32.1706 35.8732C32.8644 35.3393 33.5229 34.761 34.1421 34.1421C37.9196 30.3646 40 25.3421 40 20Z" fill="#3C79E6"/>
<path d="M27.513 12.487L28.3416 13.3155L34.9708 6.68648L34.1422 5.85789C30.3647 2.08039 25.3423 0 20 0L15.3125 4.6875L20 9.375C22.838 9.375 25.5062 10.4802 27.513 12.487Z" fill="#CF2D48"/>
<path d="M20 9.375V0C14.6578 0 9.63538 2.08039 5.8578 5.85781C5.23887 6.47696 4.66063 7.1355 4.12671 7.8293L10.8695 14.5721C12.7252 11.4625 16.1231 9.375 20 9.375Z" fill="#EB4132"/>
</g>
<defs>
<clipPath id="clip0_176_19">
<rect width="40" height="40" fill="white"/>
</clipPath>
</defs>
</svg>
