<svg width="179" height="147" viewBox="0 0 179 147" fill="none" xmlns="http://www.w3.org/2000/svg">
<mask id="mask0_283_100" style="mask-type:alpha" maskUnits="userSpaceOnUse" x="0" y="0" width="179" height="147">
<rect width="179" height="147" fill="#CCF664"/>
</mask>
<g mask="url(#mask0_283_100)">
<mask id="mask1_283_100" style="mask-type:alpha" maskUnits="userSpaceOnUse" x="-11" y="0" width="300" height="171">
<rect x="-11" width="299.25" height="171" fill="#D9D9D9"/>
</mask>
<g mask="url(#mask1_283_100)">
<path d="M222.042 28.8578C236.383 28.8578 252.846 34.6617 263.89 45.1086L283.177 25.5995C266.239 9.12466 244.13 0.754883 222.042 0.754883C172.302 0.754883 143.97 31.7903 136.862 69.4441L136.841 69.6274C149.39 65.8803 160.846 63.3144 170.819 61.5223C179.246 42.0539 197.172 28.8578 222.042 28.8578Z" fill="#050505" fill-opacity="0.1"/>
<path d="M221.177 73.9219H218.766H217.097V75.4492V77.8318V101.353H259.172V130.168C246.232 140.412 234.941 142.631 222.021 143.181C177.721 145.096 158.332 100.966 149.616 89.8469C152.109 100.457 182.996 165.012 182.996 165.012C193.916 169.309 206.836 171.753 222.021 171.753C250.93 171.753 271.391 160.837 287.607 142.489V73.9219H221.177Z" fill="#050505" fill-opacity="0.1"/>
<path d="M140.839 97.7082L140.53 97.0361C130.763 101.252 121.326 106.139 112.157 111.699L138.84 171.611C150.667 171.611 162.515 171.611 174.383 171.611L160.763 141.614L140.839 97.7082Z" fill="#050505" fill-opacity="0.1"/>
<path d="M38.4322 128.094L79.1267 36.7387L99.3606 83.414C109.519 78.9745 119.347 75.2478 128.661 72.2135L103.935 16.4354L96.8881 0.876953H61.3448L-10.2363 171.368L29.7988 171.612C86.8741 100.968 149.348 75.1256 210.215 68.0592C210.359 68.0388 124.004 66.1449 38.4322 128.094Z" fill="#050505" fill-opacity="0.1"/>
</g>
</g>
</svg>
