<svg width="42" height="24" viewBox="0 0 42 24" fill="none" xmlns="http://www.w3.org/2000/svg">
<mask id="mask0_281_56" style="mask-type:alpha" maskUnits="userSpaceOnUse" x="0" y="0" width="42" height="24">
<rect width="42" height="24" fill="#D9D9D9"/>
</mask>
<g mask="url(#mask0_281_56)">
<path d="M32.7076 4.05023C34.7204 4.05023 37.031 4.8648 38.581 6.33104L41.2879 3.59292C38.9107 1.28066 35.8077 0.105957 32.7076 0.105957C25.7265 0.105957 21.7502 4.4618 20.7525 9.74655L20.7496 9.77227C22.5107 9.24637 24.1186 8.88624 25.5183 8.63472C26.7011 5.90232 29.2171 4.05023 32.7076 4.05023Z" fill="#272729"/>
<path d="M32.5861 10.375H32.2478H32.0135V10.5894V10.9238V14.2249H37.9188V18.2693C36.1027 19.7069 34.5179 20.0184 32.7047 20.0956C26.4871 20.3643 23.7658 14.1706 22.5425 12.6101C22.8925 14.0992 27.2274 23.1596 27.2274 23.1596C28.7601 23.7626 30.5734 24.1056 32.7047 24.1056C36.762 24.1056 39.6337 22.5736 41.9096 19.9984V10.375H32.5861Z" fill="#272729"/>
<path d="M21.3106 13.7135L21.2672 13.6191C19.8965 14.2108 18.572 14.8967 17.2851 15.677L21.0301 24.0857C22.6901 24.0857 24.3529 24.0857 26.0186 24.0857L24.1071 19.8757L21.3106 13.7135Z" fill="#272729"/>
<path d="M6.93782 17.978L12.6493 5.15627L15.4892 11.7072C16.9149 11.0841 18.2943 10.5611 19.6015 10.1352L16.1312 2.30668L15.1422 0.123047H10.1536L0.107147 24.0516L5.72611 24.0859C13.7367 14.1709 22.5049 10.5439 31.0476 9.55213C31.0679 9.54927 18.9479 9.28347 6.93782 17.978Z" fill="#272729"/>
</g>
</svg>
