<svg width="8" height="7" viewBox="0 0 8 7" fill="none" xmlns="http://www.w3.org/2000/svg">
<path d="M6.75646 0.223174C6.8947 0.0784464 7.07867 -0.00156492 7.26954 2.3197e-05C7.46041 0.00161132 7.64325 0.0846749 7.77949 0.231686C7.91573 0.378698 7.9947 0.578158 7.99974 0.78798C8.00479 0.997802 7.93551 1.20157 7.80653 1.3563L3.89085 6.74132C3.82352 6.82107 3.74226 6.88507 3.65192 6.92949C3.56158 6.97391 3.46403 6.99785 3.36509 6.99986C3.26614 7.00188 3.16785 6.98193 3.07608 6.94122C2.98431 6.9005 2.90094 6.83985 2.83097 6.7629L0.234262 3.90744C0.161948 3.83334 0.103946 3.74398 0.063718 3.6447C0.0234896 3.54542 0.00185823 3.43824 0.000114546 3.32957C-0.00162914 3.22089 0.0165507 3.11295 0.053569 3.01217C0.0905874 2.91138 0.145686 2.81984 0.215578 2.74298C0.28547 2.66612 0.368724 2.60553 0.460372 2.56483C0.552021 2.52412 0.650187 2.50413 0.749014 2.50604C0.847841 2.50796 0.945304 2.53175 1.03559 2.57599C1.12588 2.62022 1.20713 2.684 1.27452 2.76352L3.32951 5.02221L6.73782 0.246916C6.74395 0.238607 6.74952 0.230681 6.75646 0.223174Z" fill="white"/>
</svg>
