<svg width="40" height="40" viewBox="0 0 40 40" fill="none" xmlns="http://www.w3.org/2000/svg">
<mask id="mask0_903_1132" style="mask-type:alpha" maskUnits="userSpaceOnUse" x="-1" y="0" width="41" height="40">
<rect x="-0.000183105" width="40" height="40" fill="#D9D9D9"/>
</mask>
<g mask="url(#mask0_903_1132)">
<path d="M21.9757 26.7335C25.6955 26.7335 28.711 23.7302 28.711 20.0255C28.711 16.3207 25.6955 13.3174 21.9757 13.3174C18.2559 13.3174 15.2404 16.3207 15.2404 20.0255C15.2404 23.7302 18.2559 26.7335 21.9757 26.7335Z" fill="#E62415"/>
<path d="M29.9786 28.3459C27.9529 30.1616 25.2689 31.1703 22.3317 31.1703C20.8396 31.2124 19.3546 30.9499 17.9681 30.3989C16.5817 29.8479 15.3231 29.0201 14.2699 27.9665C13.2168 26.9129 12.3913 25.6557 11.8443 24.2724C11.2973 22.8891 11.0404 21.4089 11.0894 19.9229C11.0894 13.4166 15.6977 8.87732 22.3317 8.87732C25.2183 8.87732 27.9529 9.83562 30.0292 11.6513L31.4472 12.8618L37.7267 6.60767L36.1568 5.19545C32.3541 1.81736 27.4273 -0.0339589 22.3317 0.000471759C10.6842 0.000471759 2.22714 8.37296 2.22714 19.8725C2.16525 22.5236 2.6422 25.1597 3.62935 27.6225C4.6165 30.0853 6.09345 32.3239 7.97142 34.2037C9.84939 36.0835 12.0896 37.5657 14.5574 38.5612C17.0252 39.5568 19.6696 40.045 22.3317 39.9967C27.6491 39.9967 32.6119 38.1306 36.2581 34.7513L37.7774 33.3391L31.3965 27.085L29.9786 28.3459Z" fill="#17313B"/>
</g>
</svg>
